<svg data-v-423bf9ae="" xmlns="http://www.w3.org/2000/svg" viewBox="0 0 343.09322920862 60" class="font"><!----><!----><!----><g data-v-423bf9ae="" id="59661a03-23f1-43ad-ab6e-4e11477a021c" fill="black" transform="matrix(4.237288181254157,0,0,4.237288181254157,-1.5254234056369,-3.728812744833668)"><path d="M11.03 8.05L11.03 8.05L11.03 8.05Q11.03 9.10 9.53 10.79L9.53 10.79L9.53 10.79Q7.98 12.54 6.85 12.54L6.85 12.54L6.85 12.54Q6.15 12.54 4.67 12.01L4.67 12.01L4.67 12.01Q3.19 11.48 1.95 11.48L1.95 11.48L1.95 11.48Q1.29 11.48 1.04 11.66L1.04 11.66L1.04 11.66Q0.70 11.91 0.45 11.97L0.45 11.97L0.45 11.97Q0.36 11.89 0.36 11.86L0.36 11.86L0.36 11.86Q0.36 11.35 1.43 10.35L1.43 10.35L1.43 10.35Q2.42 9.39 2.76 9.37L2.76 9.37L2.76 9.37Q2.84 9.37 3.15 9.27L3.15 9.27L3.15 9.27Q3.46 9.18 4.12 9.18L4.12 9.18L4.12 9.18Q5.29 9.18 5.98 9.39L5.98 9.39L5.98 9.39Q7.85 10.02 8.71 10.23L8.71 10.23L8.71 10.23Q8.72 10.22 8.72 10.09L8.72 10.09L8.72 10.09Q8.72 9.39 7.99 8.69L7.99 8.69L7.99 8.69Q7.25 7.98 6.51 7.98L6.51 7.98L5.42 7.98L5.42 7.98Q5.38 7.98 5.29 7.92L5.29 7.92L5.29 7.92Q5.21 7.87 5.17 7.87L5.17 7.87L4.14 7.87L4.14 7.87Q3.93 7.87 2.97 7.49L2.97 7.49L2.97 7.49Q2.18 7.18 1.97 7.07L1.97 7.07L1.97 7.07Q1.71 6.94 1.41 6.30L1.41 6.30L1.41 6.30Q1.15 5.70 1.15 5.42L1.15 5.42L1.15 5.42Q1.15 4.54 1.85 3.53L1.85 3.53L1.85 3.53Q2.52 2.59 3.60 1.81L3.60 1.81L3.60 1.81Q3.88 1.55 4.17 1.30L4.17 1.30L4.17 1.30Q4.66 0.88 4.89 0.88L4.89 0.88L4.89 0.88Q4.96 0.88 5.00 0.92L5.00 0.92L5.00 0.92Q5.12 1.05 5.83 1.39L5.83 1.39L5.83 1.39Q6.54 1.74 6.69 1.74L6.69 1.74L6.69 1.74Q6.73 1.74 6.76 1.72L6.76 1.72L6.76 1.72Q6.79 1.71 6.83 1.71L6.83 1.71L6.83 1.71Q6.86 1.71 7.08 1.82L7.08 1.82L7.08 1.82Q7.29 1.93 7.39 1.95L7.39 1.95L7.39 1.95Q8.71 2.17 9.30 2.17L9.30 2.17L9.30 2.17Q9.70 2.17 9.75 2.15L9.75 2.15L9.75 2.15Q9.80 2.13 10.37 1.85L10.37 1.85L10.58 1.90L10.58 1.90Q10.08 3.00 9.09 3.73L9.09 3.73L9.09 3.73Q8.11 4.47 7.20 4.47L7.20 4.47L7.20 4.47Q5.98 4.47 5.04 4.20L5.04 4.20L5.04 4.20Q3.68 3.81 3.58 3.78L3.58 3.78L3.58 3.78Q3.70 4.05 3.81 4.30L3.81 4.30L3.81 4.30Q3.98 4.63 4.19 4.75L4.19 4.75L4.19 4.75Q5.74 5.56 6.82 5.56L6.82 5.56L6.82 5.56Q6.85 5.56 6.99 5.54L6.99 5.54L6.99 5.54Q7.14 5.53 7.18 5.53L7.18 5.53L7.18 5.53Q7.22 5.53 7.50 5.60L7.50 5.60L7.50 5.60Q7.78 5.67 7.83 5.67L7.83 5.67L8.85 5.67L8.85 5.67Q9.39 5.67 10.12 6.27L10.12 6.27L10.12 6.27Q10.84 6.87 10.91 7.35L10.91 7.35L10.91 7.35Q10.93 7.50 10.98 7.61L10.98 7.61L10.98 7.61Q11.03 7.71 11.03 8.05ZM20.41 7.03L20.41 7.03L20.41 7.03Q20.41 8.20 19.04 9.55L19.04 9.55L19.04 9.55Q17.67 10.78 16.31 12.01L16.31 12.01L16.31 12.01Q16.16 12.17 15.65 12.26L15.65 12.26L15.65 12.26Q15.20 12.36 14.84 12.36L14.84 12.36L14.84 12.36Q13.86 12.36 12.98 11.56L12.98 11.56L12.98 11.56Q12.05 10.72 12.05 9.67L12.05 9.67L12.05 9.67Q12.05 8.26 13.17 6.47L13.17 6.47L13.17 6.47Q14.34 4.61 15.76 3.89L15.76 3.89L15.76 3.89Q15.78 3.92 15.76 4.06L15.76 4.06L15.76 4.06Q15.76 4.17 15.82 4.17L15.82 4.17L15.82 4.17Q15.96 4.17 16.50 4.03L16.50 4.03L16.50 4.03Q17.04 3.89 17.47 3.89L17.47 3.89L17.47 3.89Q18.73 3.89 19.60 4.89L19.60 4.89L19.60 4.89Q20.41 5.82 20.41 7.03ZM18.26 9.32L18.26 9.32L18.26 8.29L18.26 8.29Q18.26 7.77 17.52 6.97L17.52 6.97L17.52 6.97Q16.79 6.17 16.34 6.09L16.34 6.09L16.34 6.09Q15.75 5.99 15.57 5.99L15.57 5.99L15.57 5.99Q14.69 5.99 14.41 6.45L14.41 6.45L14.41 6.45Q14.21 6.79 14.21 7.76L14.21 7.76L14.21 7.76Q14.21 8.71 15.04 9.48L15.04 9.48L15.04 9.48Q15.86 10.25 16.74 10.25L16.74 10.25L16.74 10.25Q17.23 10.25 17.43 10.12L17.43 10.12L17.43 10.12Q17.57 10.04 18.26 9.32ZM28.80 4.47L28.80 4.47L28.80 4.47Q28.80 5.00 27.47 5.98L27.47 5.98L27.47 5.98Q26.28 6.85 26.03 6.86L26.03 6.86L26.03 6.86Q25.94 6.87 25.72 6.89L25.72 6.89L25.72 6.89Q25.49 6.92 25.45 6.92L25.45 6.92L25.45 6.92Q24.67 6.92 23.95 6.19L23.95 6.19L23.95 6.19Q23.63 6.66 23.63 7.76L23.63 7.76L23.63 7.76Q23.63 8.78 24.15 9.53L24.15 9.53L24.15 9.53Q24.79 10.47 25.98 10.47L25.98 10.47L25.98 10.47Q26.39 10.47 26.88 10.22L26.88 10.22L26.88 10.22Q27.62 9.84 27.97 9.72L27.97 9.72L27.97 9.72Q27.76 10.57 26.46 11.50L26.46 11.50L26.46 11.50Q25.16 12.43 24.22 12.43L24.22 12.43L24.22 12.43Q22.99 12.43 22.29 11.54L22.29 11.54L22.29 11.54Q21.67 10.72 21.67 9.51L21.67 9.51L21.67 9.51Q21.67 9.49 21.77 8.50L21.77 8.50L21.77 8.50Q21.84 7.81 22.79 6.43L22.79 6.43L22.79 6.43Q23.00 6.13 23.91 5.22L23.91 5.22L23.91 5.22Q25.05 4.12 25.41 4.12L25.41 4.12L25.41 4.12Q25.72 4.12 26.16 4.54L26.16 4.54L26.16 4.54Q26.60 4.96 27.22 4.96L27.22 4.96L27.22 4.96Q27.55 4.96 27.87 4.77L27.87 4.77L27.87 4.77Q28.41 4.47 28.71 4.35L28.71 4.35L28.71 4.35Q28.80 4.44 28.80 4.47ZM32.31 1.85L32.52 1.85L32.52 1.85Q32.28 2.52 31.42 3.30L31.42 3.30L31.42 3.30Q30.56 4.09 30.07 4.03L30.07 4.03L30.07 4.03Q29.85 3.74 29.41 3.25L29.41 3.25L29.41 3.25Q28.99 3.57 28.83 3.57L28.83 3.57L28.83 3.57Q28.77 3.51 28.77 3.43L28.77 3.43L28.77 3.43Q28.77 3.02 29.78 2.10L29.78 2.10L29.78 2.10Q30.80 1.18 31.12 1.18L31.12 1.18L31.12 1.18Q31.26 1.18 31.58 1.53L31.58 1.53L31.58 1.53Q31.79 1.76 32.00 2.00L32.00 2.00L32.00 2.00Q32.10 1.96 32.31 1.85L32.31 1.85ZM32.56 9.34L32.56 9.34L32.56 9.34Q32.56 10.02 31.63 11.32L31.63 11.32L31.63 11.32Q30.69 12.61 30.16 12.60L30.16 12.60L29.99 12.60L29.99 12.60Q30.09 12.31 30.37 11.80L30.37 11.80L30.37 11.80Q30.58 11.44 30.58 11.14L30.58 11.14L30.58 11.14Q30.58 11.10 30.53 10.91L30.53 10.91L30.53 10.91Q30.49 10.72 30.49 10.67L30.49 10.67L30.49 8.53L30.49 8.53Q30.49 8.05 30.35 7.57L30.35 7.57L30.35 7.57Q30.16 6.93 29.79 6.93L29.79 6.93L29.79 6.93Q29.75 6.93 29.59 7.05L29.59 7.05L29.59 7.05Q29.43 7.17 29.37 7.17L29.37 7.17L29.12 7.17L29.12 7.17Q29.30 6.52 30.32 5.63L30.32 5.63L30.32 5.63Q31.28 4.79 31.61 4.82L31.61 4.82L31.61 4.82Q31.88 4.96 32.24 5.29L32.24 5.29L32.24 5.29Q32.49 5.80 32.49 6.64L32.49 6.64L32.49 8.76L32.49 8.76Q32.49 8.79 32.53 9.04L32.53 9.04L32.53 9.04Q32.56 9.28 32.56 9.34ZM42.17 10.44L42.17 10.44L42.17 10.44Q42.06 10.77 41.24 11.68L41.24 11.68L41.24 11.68Q40.36 12.68 39.96 12.68L39.96 12.68L39.96 12.68Q39.90 12.68 39.28 12.11L39.28 12.11L39.28 12.11Q38.63 11.51 38.60 11.28L38.60 11.28L38.60 11.28Q38.23 11.76 37.32 12.22L37.32 12.22L37.32 12.22Q36.41 12.68 35.90 12.68L35.90 12.68L35.90 12.68Q35.01 12.68 34.41 11.89L34.41 11.89L34.41 11.89Q33.89 11.20 33.89 10.46L33.89 10.46L33.89 10.46Q33.89 8.64 35.53 6.72L35.53 6.72L35.53 6.72Q36.99 5.01 38.29 4.65L38.29 4.65L38.29 4.65Q38.33 4.63 38.49 4.55L38.49 4.55L38.49 4.55Q38.64 4.47 38.70 4.47L38.70 4.47L38.70 4.47Q38.68 4.47 39.09 4.75L39.09 4.75L39.09 4.75Q39.51 5.04 40.00 5.04L40.00 5.04L40.00 5.04Q40.52 5.04 40.74 4.93L40.74 4.93L40.74 4.93Q40.92 4.83 41.16 4.86L41.16 4.86L41.16 4.86Q41.20 5.19 40.52 5.85L40.52 5.85L40.52 7.04L40.52 7.04Q40.52 7.10 40.56 7.24L40.56 7.24L40.56 7.24Q40.60 7.38 40.60 7.42L40.60 7.42L40.60 9.59L40.60 9.59Q40.96 9.94 41.66 10.58L41.66 10.58L41.66 10.58Q42.04 10.42 42.17 10.44ZM38.63 10.39L38.63 10.39L38.63 9.37L38.63 9.37Q38.63 9.31 38.58 9.17L38.58 9.17L38.58 9.17Q38.54 9.03 38.54 8.99L38.54 8.99L38.54 7.07L38.54 7.07Q38.51 7.06 37.98 7.06L37.98 7.06L37.98 7.06Q37.73 7.06 37.35 6.79L37.35 6.79L37.35 6.79Q37.09 6.59 36.82 6.40L36.82 6.40L36.82 6.40Q36.39 6.62 36.11 7.42L36.11 7.42L36.11 7.42Q35.87 8.09 35.87 8.67L35.87 8.67L35.87 8.67Q35.87 9.31 36.34 9.95L36.34 9.95L36.34 9.95Q36.89 10.71 37.66 10.71L37.66 10.71L37.66 10.71Q37.97 10.71 38.63 10.39ZM47.73 9.95L47.73 9.95L47.73 9.95Q47.73 10.51 46.58 11.61L46.58 11.61L46.58 11.61Q45.50 12.61 45.19 12.66L45.19 12.66L45.19 12.66Q45.09 12.53 44.56 12.11L44.56 12.11L44.56 12.11Q44.27 11.87 44.27 11.55L44.27 11.55L44.27 7.41L44.27 7.41Q44.27 7.38 44.31 7.19L44.31 7.19L44.31 7.19Q44.35 7.00 44.35 6.94L44.35 6.94L44.35 3.92L44.35 3.92Q44.14 3.61 43.96 3.44L43.96 3.44L43.96 3.44Q43.53 3.74 43.09 3.93L43.09 3.93L43.09 3.93Q43.04 3.88 43.04 3.75L43.04 3.75L43.04 3.75Q43.04 3.30 44.11 2.24L44.11 2.24L44.11 2.24Q45.19 1.18 45.65 1.18L45.65 1.18L45.65 1.18Q45.78 1.18 46.12 1.48L46.12 1.48L46.12 1.48Q46.45 1.79 46.45 1.93L46.45 1.93L46.45 5.28L46.45 5.28Q46.45 5.32 46.41 5.43L46.41 5.43L46.41 5.43Q46.37 5.54 46.37 5.60L46.37 5.60L46.37 9.59L46.37 9.59Q46.37 9.72 46.58 9.97L46.58 9.97L46.58 9.97Q46.79 10.22 46.93 10.22L46.93 10.22L46.93 10.22Q46.96 10.22 47.22 10.04L47.22 10.04L47.22 10.04Q47.49 9.87 47.67 9.81L47.67 9.81L47.67 9.81Q47.73 9.87 47.73 9.95ZM65.88 9.48L65.88 9.48L65.88 9.48Q65.88 9.93 64.58 11.23L64.58 11.23L64.58 11.23Q63.27 12.54 62.83 12.54L62.83 12.54L62.83 12.54Q62.65 12.54 62.10 11.66L62.10 11.66L62.10 11.66Q61.77 11.12 61.45 10.58L61.45 10.58L61.45 10.58Q59.40 12.63 58.11 12.63L58.11 12.63L58.11 12.63Q55.33 12.63 55.33 9.62L55.33 9.62L55.33 9.62Q55.33 7.73 56.62 5.80L56.62 5.80L56.62 5.80Q57.81 4.02 59.95 2.39L59.95 2.39L59.95 2.39Q60.31 2.06 60.68 1.72L60.68 1.72L60.68 1.72Q61.28 1.18 61.56 1.18L61.56 1.18L61.56 1.18Q63.14 2.45 63.85 3.35L63.85 3.35L63.85 3.35Q63.90 3.50 63.83 3.75L63.83 3.75L63.83 3.75Q63.77 4.05 63.77 4.09L63.77 4.09L63.77 7.97L63.77 7.97Q63.77 8.01 64.90 9.87L64.90 9.87L64.90 9.87Q65.37 9.44 65.84 9.32L65.84 9.32L65.84 9.32Q65.88 9.39 65.88 9.48ZM61.42 5.82L61.42 5.82L61.42 5.82Q61.42 5.57 60.84 5.10L60.84 5.10L60.84 5.10Q59.93 4.34 59.54 3.93L59.54 3.93L59.54 3.93Q58.94 4.33 58.93 4.34L58.93 4.34L58.93 4.34Q58.56 4.59 58.49 4.72L58.49 4.72L58.49 4.72Q58.00 5.77 57.86 6.33L57.86 6.33L57.86 6.33Q57.75 6.76 57.75 7.42L57.75 7.42L57.75 7.42Q57.75 8.69 58.44 9.45L58.44 9.45L58.44 9.45Q59.14 10.21 60.37 10.21L60.37 10.21L60.37 10.21Q60.68 10.21 60.91 10.02L60.91 10.02L60.91 10.02Q61.14 9.84 61.35 9.65L61.35 9.65L61.35 6.10L61.35 6.10Q61.35 6.05 61.38 5.96L61.38 5.96L61.38 5.96Q61.42 5.87 61.42 5.82ZM73.49 7.27L73.49 7.27L73.49 7.27Q73.49 7.97 73.43 8.16L73.43 8.16L73.43 8.16Q73.36 8.51 72.94 9.30L72.94 9.30L72.94 9.30Q72.74 9.69 71.60 10.79L71.60 10.79L71.60 10.79Q70.35 12.00 69.94 12.00L69.94 12.00L69.94 12.00Q69.86 12.00 69.22 11.48L69.22 11.48L69.22 11.48Q68.85 12.84 68.53 13.43L68.53 13.43L68.53 13.43Q67.90 14.53 66.72 15.04L66.72 15.04L66.72 15.04Q67.56 13.16 67.56 12.39L67.56 12.39L67.56 11.23L67.56 11.23Q67.49 11.20 67.23 11.20L67.23 11.20L67.23 11.20Q66.75 11.20 66.30 11.28L66.30 11.28L66.30 11.28Q66.16 11.31 65.91 11.47L65.91 11.47L65.91 11.47Q65.62 11.65 65.49 11.69L65.49 11.69L65.49 11.69Q65.45 11.65 65.45 11.56L65.45 11.56L65.45 11.56Q65.45 11.14 66.46 10.35L66.46 10.35L66.46 10.35Q67.23 9.73 67.52 9.59L67.52 9.59L67.52 9.59Q67.51 9.04 67.48 8.43L67.48 8.43L67.48 8.43Q67.42 8.33 67.42 8.27L67.42 8.27L67.42 7.04L67.42 7.04Q66.96 6.64 66.75 6.43L66.75 6.43L66.75 6.43Q66.74 6.43 66.36 6.69L66.36 6.69L66.36 6.69Q66.15 6.83 66.00 6.79L66.00 6.79L66.00 6.79Q65.97 6.48 66.84 5.47L66.84 5.47L66.84 5.47Q67.70 4.45 68.15 4.45L68.15 4.45L68.15 4.45Q68.21 4.45 68.66 4.84L68.66 4.84L68.66 4.84Q69.16 5.26 69.22 5.46L69.22 5.46L69.22 5.46Q69.69 5.03 70.17 4.61L70.17 4.61L70.17 4.61Q70.74 4.12 71.11 4.12L71.11 4.12L71.11 4.12Q72.27 4.12 72.94 5.25L72.94 5.25L72.94 5.25Q73.49 6.17 73.49 7.27ZM71.72 8.85L71.72 8.85L71.72 8.85Q71.72 8.13 71.55 7.66L71.55 7.66L71.55 7.66Q71.39 7.20 70.88 6.48L70.88 6.48L70.88 6.48Q70.84 6.43 70.28 6.15L70.28 6.15L70.28 6.15Q69.72 5.88 69.58 5.88L69.58 5.88L69.58 5.88Q69.41 5.88 69.30 6.08L69.30 6.08L69.30 6.08Q69.19 6.29 69.19 6.40L69.19 6.40L69.19 6.40Q69.19 6.44 69.22 6.58L69.22 6.58L69.22 6.58Q69.26 6.72 69.26 6.76L69.26 6.76L69.26 7.90L69.26 7.90Q69.26 7.94 69.29 7.97L69.29 7.97L69.29 7.97Q69.33 7.99 69.33 8.04L69.33 8.04L69.33 9.44L69.33 9.44Q70.57 9.38 71.50 10.09L71.50 10.09L71.50 10.09Q71.72 9.63 71.72 8.85ZM81.33 7.27L81.33 7.27L81.33 7.27Q81.33 7.97 81.27 8.16L81.27 8.16L81.27 8.16Q81.20 8.51 80.78 9.30L80.78 9.30L80.78 9.30Q80.58 9.69 79.44 10.79L79.44 10.79L79.44 10.79Q78.19 12.00 77.78 12.00L77.78 12.00L77.78 12.00Q77.70 12.00 77.06 11.48L77.06 11.48L77.06 11.48Q76.69 12.84 76.37 13.43L76.37 13.43L76.37 13.43Q75.74 14.53 74.56 15.04L74.56 15.04L74.56 15.04Q75.40 13.16 75.40 12.39L75.40 12.39L75.40 11.23L75.40 11.23Q75.33 11.20 75.07 11.20L75.07 11.20L75.07 11.20Q74.59 11.20 74.14 11.28L74.14 11.28L74.14 11.28Q74.00 11.31 73.75 11.47L73.75 11.47L73.75 11.47Q73.46 11.65 73.33 11.69L73.33 11.69L73.33 11.69Q73.29 11.65 73.29 11.56L73.29 11.56L73.29 11.56Q73.29 11.14 74.30 10.35L74.30 10.35L74.30 10.35Q75.07 9.73 75.36 9.59L75.36 9.59L75.36 9.59Q75.35 9.04 75.32 8.43L75.32 8.43L75.32 8.43Q75.26 8.33 75.26 8.27L75.26 8.27L75.26 7.04L75.26 7.04Q74.80 6.64 74.59 6.43L74.59 6.43L74.59 6.43Q74.58 6.43 74.20 6.69L74.20 6.69L74.20 6.69Q73.99 6.83 73.84 6.79L73.84 6.79L73.84 6.79Q73.81 6.48 74.68 5.47L74.68 5.47L74.68 5.47Q75.54 4.45 75.99 4.45L75.99 4.45L75.99 4.45Q76.05 4.45 76.50 4.84L76.50 4.84L76.50 4.84Q77.00 5.26 77.06 5.46L77.06 5.46L77.06 5.46Q77.53 5.03 78.01 4.61L78.01 4.61L78.01 4.61Q78.58 4.12 78.95 4.12L78.95 4.12L78.95 4.12Q80.11 4.12 80.78 5.25L80.78 5.25L80.78 5.25Q81.33 6.17 81.33 7.27ZM79.56 8.85L79.56 8.85L79.56 8.85Q79.56 8.13 79.39 7.66L79.39 7.66L79.39 7.66Q79.23 7.20 78.72 6.48L78.72 6.48L78.72 6.48Q78.68 6.43 78.12 6.15L78.12 6.15L78.12 6.15Q77.56 5.88 77.42 5.88L77.42 5.88L77.42 5.88Q77.25 5.88 77.14 6.08L77.14 6.08L77.14 6.08Q77.03 6.29 77.03 6.40L77.03 6.40L77.03 6.40Q77.03 6.44 77.06 6.58L77.06 6.58L77.06 6.58Q77.10 6.72 77.10 6.76L77.10 6.76L77.10 7.90L77.10 7.90Q77.10 7.94 77.13 7.97L77.13 7.97L77.13 7.97Q77.17 7.99 77.17 8.04L77.17 8.04L77.17 9.44L77.17 9.44Q78.41 9.38 79.34 10.09L79.34 10.09L79.34 10.09Q79.56 9.63 79.56 8.85Z"></path></g><!----><!----></svg>